<?xml version="1.0" encoding="utf-8"?>
<!-- Generator: Adobe Illustrator 14.0.0, SVG Export Plug-In . SVG Version: 6.00 Build 43363)  -->
<!DOCTYPE svg PUBLIC "-//W3C//DTD SVG 1.1//EN" "http://www.w3.org/Graphics/SVG/1.1/DTD/svg11.dtd">
<svg version="1.1" id="Layer_1" xmlns="http://www.w3.org/2000/svg" xmlns:xlink="http://www.w3.org/1999/xlink" x="0px" y="0px"
	 width="62.125px" height="62.125px" viewBox="-273.64 444.945 62.125 62.125"
	 enable-background="new -273.64 444.945 62.125 62.125" xml:space="preserve">
<rect x="-256.208" y="465.723" fill="#DDDDDD" width="27.418" height="17.124"/>
<polygon fill="#FFFFFF" points="-228.761,482.898 -255.498,482.807 -247.195,474.458 -241.342,480.402 -228.727,467.696 "/>
<g>
	<path opacity="0.5" fill="#0696D7" d="M-237.556,465.787l3.35,3.35l-7.124,7.116l-5.842-5.839l-10.823,10.825l2.066,2.065
		l8.757-8.758l5.842,5.839l9.182-9.19l3.351,3.352v-8.76H-237.556z"/>
	<path fill="#0696D7" d="M-237.564,465.771l3.35,3.353l3.517,3.517l1.893,1.889v-8.758H-237.564z"/>
</g>
<polygon fill="#333333" points="-263.055,489.85 -263.055,486.326 -221.877,486.326 -221.877,489.859 "/>
<path fill="#666666" d="M-259.607,462.328l34.235,0.018l-0.006,23.987h-34.211L-259.607,462.328z M-228.805,465.772h-27.414v17.134
	h27.414V465.772z"/>
</svg>
