<?xml version="1.0" encoding="utf-8"?>
<!-- Generator: Adobe Illustrator 14.0.0, SVG Export Plug-In . SVG Version: 6.00 Build 43363)  -->
<!DOCTYPE svg PUBLIC "-//W3C//DTD SVG 1.1//EN" "http://www.w3.org/Graphics/SVG/1.1/DTD/svg11.dtd">
<svg version="1.1" id="Layer_1" xmlns="http://www.w3.org/2000/svg" xmlns:xlink="http://www.w3.org/1999/xlink" x="0px" y="0px"
	 width="1399.824px" height="238px" viewBox="0 0 1399.824 238" enable-background="new 0 0 1399.824 238" xml:space="preserve">
<g>
	<g>
		<defs>
			<rect id="SVGID_1_" x="-2" y="-0.326" width="1401.824" height="238.538"/>
		</defs>
		<clipPath id="SVGID_2_">
			<use xlink:href="#SVGID_1_"  overflow="visible"/>
		</clipPath>
		<g opacity="0.7" clip-path="url(#SVGID_2_)">
			<rect x="-1.469" y="-1113.513" fill="none" width="1866.908" height="1401.344"/>
			<g>
				<g>
					<rect x="1609.106" y="-563.398" fill="none" width="256.242" height="338.48"/>
					<polygon fill="#E9E9EA" points="1865.348,-224.918 1609.106,-385.873 1865.146,-563.398 					"/>
				</g>
			</g>
			<g>
				<g>
					<rect x="1581.321" y="-224.869" fill="none" width="284.118" height="512.353"/>
					<polygon fill="#D1D2D4" points="1865.439,287.484 1673.402,186.562 1581.321,-83.648 1865.287,-224.869 					"/>
				</g>
			</g>
			<g>
				<g>
					<rect x="1398.794" y="-19.622" fill="none" width="466.645" height="307.105"/>
					<polygon fill="#E5E6E7" points="1398.794,287.484 1865.193,-19.622 1672.68,187.542 1865.439,287.47 					"/>
				</g>
			</g>
			<g>
				<g>
					<rect x="1214.639" y="187.542" fill="none" width="458.041" height="100.607"/>
					<polygon fill="#D8D9DB" points="1214.639,288.149 1672.68,187.542 1396.912,286.179 					"/>
				</g>
			</g>
			<g>
				<g>
					<rect x="1074.826" y="-392.318" fill="none" width="451.258" height="255.735"/>
					<polygon fill="#F7F8F9" points="1074.826,-136.583 1526.083,-386.913 1340.214,-392.318 					"/>
				</g>
			</g>
			<g>
				<g>
					<rect x="877.702" y="-392.46" fill="none" width="197.167" height="317.712"/>
					<polyline fill="#E5E6E7" points="1074.865,-136.44 932.198,-74.749 877.702,-392.46 					"/>
				</g>
			</g>
			<g>
				<g>
					<rect x="976.347" y="-392.291" fill="none" width="363.753" height="255.823"/>
					<polygon fill="#D1D2D4" points="1340.1,-392.291 976.347,-264.482 1074.873,-136.468 					"/>
				</g>
			</g>
			<g>
				<g>
					<rect x="1398.486" y="-83.64" fill="none" width="466.506" height="371.042"/>
					<polygon fill="#F3F4F4" points="1398.488,287.402 1864.992,-19.543 1581.264,-83.64 					"/>
				</g>
			</g>
			<g>
				<g>
					<rect x="1214.581" y="-83.607" fill="none" width="366.576" height="371.119"/>
					<polygon fill="#E9E9EA" points="1581.157,-83.607 1358.559,124.372 1214.581,65.701 1398.533,287.511 					"/>
				</g>
			</g>
			<g>
				<g>
					<rect x="1346.328" y="-186.976" fill="none" width="234.946" height="199.432"/>
					<polygon fill="#F3F4F4" points="1346.328,-186.976 1354.127,12.457 1567.29,-84.287 1581.278,-83.64 					"/>
				</g>
			</g>
			<g>
				<g>
					<rect x="1346.177" y="-386.886" fill="none" width="235.069" height="303.168"/>
					<polygon fill="#D1D2D4" points="1581.247,-83.718 1578.404,-91.7 1526.076,-386.886 1346.179,-186.938 					"/>
				</g>
			</g>
			<g>
				<g>
					<rect x="1075.076" y="-136.602" fill="none" width="279.123" height="202.102"/>
					<polygon fill="#D1D2D4" points="1075.08,-136.602 1214.699,65.5 1354.199,12.397 					"/>
				</g>
			</g>
			<g>
				<g>
					<rect x="1074.931" y="-187.075" fill="none" width="279.235" height="199.395"/>
					<polygon fill="#E5E6E7" points="1354.167,12.319 1346.21,-187.075 1074.931,-136.569 					"/>
				</g>
			</g>
			<g>
				<g>
					<rect x="932.339" y="-74.771" fill="none" width="282.343" height="362.282"/>
					<polygon fill="#E5E6E7" points="932.339,-74.771 1214.62,287.511 1214.68,65.703 					"/>
				</g>
			</g>
			<g>
				<g>
					<rect x="932.196" y="-136.422" fill="none" width="282.451" height="283.758"/>
					<polygon fill="#DCDDDF" points="1214.647,65.623 1075.264,-136.404 1074.871,-136.422 932.196,-74.74 997.766,147.336 					"/>
				</g>
			</g>
			<g>
				<g>
					<rect x="1526.083" y="-386.895" fill="none" width="339.047" height="303.843"/>
					<polygon fill="#E9E9EA" points="1526.083,-386.895 1579.637,-83.052 1865.132,-224.787 					"/>
				</g>
			</g>
			<g>
				<g>
					<rect x="1525.936" y="-386.858" fill="none" width="339.155" height="161.99"/>
					<polygon fill="#D8D9DB" points="1865.091,-224.869 1608.939,-385.873 1525.936,-386.858 					"/>
				</g>
			</g>
			<g>
				<g>
					<rect x="655.26" y="-485.081" fill="none" width="276.956" height="410.392"/>
					<polygon fill="#E9E9EA" points="932.216,-74.689 655.26,-485.078 877.651,-392.4 					"/>
				</g>
			</g>
			<g>
				<g>
					<rect x="704.861" y="-74.639" fill="none" width="509.811" height="362.2"/>
					<polygon fill="#D1D2D4" points="1214.672,287.561 932.022,287.475 932.022,287.484 932.017,287.475 931.999,287.484 
						931.999,287.448 704.861,1.266 932.143,-74.639 931.999,176.01 932.198,-74.639 					"/>
				</g>
			</g>
			<g>
				<g>
					<rect x="465.37" y="152.116" fill="none" width="542.339" height="135.368"/>
					<polygon fill="#E5E6E7" points="465.37,287.484 542.761,262.728 1007.707,152.116 932.024,287.47 					"/>
				</g>
			</g>
			<g>
				<g>
					<rect x="-1.424" y="147.336" fill="none" width="466.648" height="140.148"/>
					<polygon fill="#D8D9DB" points="-1.424,287.484 371.888,147.336 465.224,287.47 					"/>
				</g>
			</g>
			<g>
				<g>
					<rect x="-1.469" y="-418.797" fill="none" width="568.045" height="232.483"/>
					<polygon fill="#F7F8F9" points="-1.469,-186.314 566.576,-294.297 470.959,-418.799 					"/>
				</g>
			</g>
			<g>
				<g>
					<rect x="-1.428" y="-413.299" fill="none" width="0.004" height="350.337"/>
					<polygon fill="#E5E6E7" points="-1.424,-413.299 -1.428,-186.173 -1.424,-62.962 					"/>
				</g>
			</g>
			<g>
				<g>
					<rect x="-1.424" y="-62.852" fill="none" width="186.664" height="350.336"/>
					<polygon fill="#F3F4F4" points="-1.424,-62.852 185.24,217.422 -1.424,287.484 					"/>
				</g>
			</g>
			<g>
				<g>
					<rect x="-1.424" y="-418.774" fill="none" width="472.268" height="232.574"/>
					<polygon fill="#D1D2D4" points="470.844,-418.774 211.461,-363.293 -1.424,-186.2 					"/>
				</g>
			</g>
			<g>
				<g>
					<rect x="465.069" y="1.276" fill="none" width="542.435" height="286.126"/>
					<polygon fill="#F3F4F4" points="465.069,287.402 547.07,261.688 1007.504,152.189 704.809,1.276 					"/>
				</g>
			</g>
			<g>
				<g>
					<rect x="371.799" y="1.303" fill="none" width="332.894" height="286.208"/>
					<polygon fill="#E9E9EA" points="704.693,1.303 371.799,147.368 465.107,287.511 					"/>
				</g>
			</g>
			<g>
				<g>
					<rect x="372.092" y="-203.11" fill="none" width="332.724" height="280.634"/>
					<polygon fill="#F3F4F4" points="372.092,-203.11 659.531,77.523 704.816,1.276 					"/>
				</g>
			</g>
			<g>
				<g>
					<rect x="371.94" y="-294.27" fill="none" width="332.845" height="295.468"/>
					<polygon fill="#D1D2D4" points="704.785,1.198 566.576,-294.27 371.94,-203.073 					"/>
				</g>
			</g>
			<g>
				<g>
					<rect x="-1.209" y="-186.332" fill="none" width="660.805" height="333.498"/>
					<polygon fill="#D1D2D4" points="-1.209,-186.332 371.913,147.167 659.595,77.456 					"/>
				</g>
			</g>
			<g>
				<g>
					<rect x="-1.364" y="-203.21" fill="none" width="660.934" height="280.589"/>
					<polygon fill="#E5E6E7" points="659.57,77.378 371.971,-203.21 -1.364,-186.298 					"/>
				</g>
			</g>
			<g>
				<g>
					<rect x="-1.273" y="-62.984" fill="none" width="373.168" height="280.352"/>
					<polygon fill="#E5E6E7" points="-1.273,-62.984 185.187,217.367 371.895,147.372 					"/>
				</g>
			</g>
			<g>
				<g>
					<rect x="-1.424" y="-186.154" fill="none" width="373.287" height="333.444"/>
					<polygon fill="#DCDDDF" points="371.863,147.29 -1.424,-186.154 -1.424,-62.953 					"/>
				</g>
			</g>
			<g>
				<g>
					<rect x="566.576" y="-294.279" fill="none" width="365.413" height="295.522"/>
					<polygon fill="#E9E9EA" points="566.576,-294.279 704.642,1.244 931.989,-74.557 					"/>
				</g>
			</g>
			<g>
				<g>
					<rect x="566.434" y="-485.081" fill="none" width="365.524" height="410.441"/>
					<polygon fill="#D8D9DB" points="931.958,-74.639 655.26,-485.081 566.434,-294.238 					"/>
				</g>
			</g>
			<g>
				<g>
					<rect x="1398.794" y="-1113.806" fill="none" width="466.645" height="156.864"/>
					<polygon fill="#D1D2D4" points="1865.439,-1113.635 1525.99,-956.944 1398.794,-1113.806 					"/>
				</g>
			</g>
			<g>
				<g>
					<rect x="1632.203" y="-1113.751" fill="none" width="233.173" height="210.065"/>
					<polygon fill="#E9E9EA" points="1865.348,-903.686 1632.203,-1113.748 1865.374,-1113.748 					"/>
				</g>
			</g>
			<g>
				<g>
					<rect x="1678.734" y="-903.63" fill="none" width="186.553" height="340.448"/>
					<polygon fill="#D1D2D4" points="1865.208,-563.182 1678.734,-693.277 1865.289,-903.631 					"/>
				</g>
			</g>
			<g>
				<g>
					<rect x="1340.192" y="-563.285" fill="none" width="525.017" height="176.399"/>
					<polygon fill="#E5E6E7" points="1865.164,-563.272 1865.208,-563.199 1864.98,-563.199 1526.06,-386.886 1340.372,-392.018 
						1340.192,-392.018 1340.34,-392.073 1340.192,-392.291 1340.924,-392.291 1772.107,-553.174 1865.15,-563.285 
						1865.208,-563.285 					"/>
				</g>
			</g>
			<g>
				<g>
					<rect x="877.702" y="-392.46" fill="none" width="462.341" height="128.042"/>
					<polygon fill="#D8D9DB" points="1339.999,-392.1 1340.045,-392.031 1339.81,-392.031 976.222,-264.419 877.881,-392.177 
						877.702,-392.177 877.841,-392.236 877.702,-392.46 878.435,-392.46 1183.573,-392.391 1339.987,-392.117 1340.045,-392.117 
											"/>
				</g>
			</g>
			<g>
				<g>
					<rect x="931.999" y="-1113.806" fill="none" width="466.651" height="140.167"/>
					<polygon fill="#E9E9EA" points="1398.65,-1113.635 1025.231,-973.639 931.999,-1113.806 					"/>
				</g>
			</g>
			<g>
				<g>
					<rect x="1165.198" y="-1113.83" fill="none" width="360.81" height="387.528"/>
					<polygon fill="#F7F8F9" points="1165.198,-726.303 1526.007,-956.964 1398.814,-1113.833 					"/>
				</g>
			</g>
			<g>
				<g>
					<rect x="931.999" y="-1113.806" fill="none" width="233.239" height="387.644"/>
					<polygon fill="#E5E6E7" points="931.999,-1113.809 1165.238,-726.159 931.999,-763.472 					"/>
				</g>
			</g>
			<g>
				<g>
					<rect x="1025.356" y="-1113.806" fill="none" width="373.351" height="387.613"/>
					<polygon fill="#D1D2D4" points="1398.707,-1113.809 1025.356,-973.708 1165.244,-726.192 					"/>
				</g>
			</g>
			<g>
				<g>
					<rect x="1339.88" y="-693.272" fill="none" width="432.026" height="301.172"/>
					<polygon fill="#F3F4F4" points="1339.88,-392.1 1771.907,-553.097 1678.679,-693.272 					"/>
				</g>
			</g>
			<g>
				<g>
					<rect x="1183.481" y="-693.242" fill="none" width="495.088" height="301.251"/>
					<polygon fill="#E9E9EA" points="1678.569,-693.242 1183.481,-392.359 1339.927,-391.991 					"/>
				</g>
			</g>
			<g>
				<g>
					<rect x="1305.513" y="-903.615" fill="none" width="373.176" height="210.907"/>
					<polygon fill="#F3F4F4" points="1305.513,-903.618 1475.749,-692.705 1678.689,-693.269 					"/>
				</g>
			</g>
			<g>
				<g>
					<rect x="1305.365" y="-956.938" fill="none" width="373.293" height="263.595"/>
					<polygon fill="#D1D2D4" points="1678.658,-693.343 1526.001,-956.938 1305.365,-903.584 					"/>
				</g>
			</g>
			<g>
				<g>
					<rect x="1165.451" y="-726.319" fill="none" width="310.368" height="333.755"/>
					<polygon fill="#D1D2D4" points="1165.451,-726.321 1183.596,-392.564 1475.819,-692.771 					"/>
				</g>
			</g>
			<g>
				<g>
					<rect x="1165.3" y="-903.716" fill="none" width="310.484" height="210.873"/>
					<polygon fill="#E5E6E7" points="1475.787,-692.846 1305.396,-903.719 1165.3,-726.284 					"/>
				</g>
			</g>
			<g>
				<g>
					<rect x="932.145" y="-763.492" fill="none" width="251.436" height="371.138"/>
					<polygon fill="#E5E6E7" points="932.147,-763.495 1114.341,-505.25 1183.581,-392.354 					"/>
				</g>
			</g>
			<g>
				<g>
					<rect x="931.999" y="-763.463" fill="none" width="251.544" height="371.026"/>
					<polygon fill="#DCDDDF" points="1183.543,-392.437 1165.244,-726.141 931.999,-763.463 					"/>
				</g>
			</g>
			<g>
				<g>
					<rect x="1526.007" y="-956.945" fill="none" width="339.123" height="263.655"/>
					<polygon fill="#E9E9EA" points="1526.007,-956.945 1678.508,-693.29 1865.13,-903.548 					"/>
				</g>
			</g>
			<g>
				<g>
					<rect x="1525.86" y="-1113.751" fill="none" width="339.231" height="210.121"/>
					<polygon fill="#D8D9DB" points="1865.091,-903.631 1632.033,-1113.751 1525.862,-956.911 					"/>
				</g>
			</g>
			<g>
				<g>
					<rect x="465.37" y="-1113.806" fill="none" width="466.655" height="156.873"/>
					<polygon fill="#D1D2D4" points="932.022,-1113.635 752.056,-956.933 465.37,-1113.806 					"/>
				</g>
			</g>
			<g>
				<g>
					<rect x="697.69" y="-1113.83" fill="none" width="234.334" height="350.416"/>
					<polygon fill="#E9E9EA" points="932.022,-763.414 697.69,-1113.833 931.952,-1113.751 					"/>
				</g>
			</g>
			<g>
				<g>
					<rect x="763.118" y="-763.359" fill="none" width="351.277" height="371.182"/>
					<polygon fill="#D1D2D4" points="1114.395,-505.197 877.722,-392.19 877.722,-392.177 877.715,-392.19 877.702,-392.177 
						877.702,-392.218 763.118,-663.203 931.95,-763.359 877.722,-392.177 931.999,-763.359 					"/>
				</g>
			</g>
			<g>
				<g>
					<rect x="470.935" y="-565.338" fill="none" width="434.248" height="271.068"/>
					<polygon fill="#E5E6E7" points="877.677,-392.264 877.722,-392.199 877.489,-392.199 663.879,-487.84 566.564,-294.27 
						471.126,-418.5 470.935,-418.5 471.087,-418.555 470.935,-418.781 471.667,-418.781 905.183,-565.34 877.663,-392.287 
						877.722,-392.287 					"/>
				</g>
			</g>
			<g>
				<g>
					<rect x="-1.424" y="-540.752" fill="none" width="472.217" height="177.528"/>
					<polygon fill="#D8D9DB" points="470.741,-418.586 470.793,-418.519 470.562,-418.519 211.347,-363.225 -1.242,-413.022 
						-1.424,-413.022 -1.273,-413.083 -1.424,-413.298 -0.69,-413.298 211.493,-540.752 470.728,-418.605 470.793,-418.605 					"/>
				</g>
			</g>
			<g>
				<g>
					<rect x="-1.424" y="-1113.806" fill="none" width="466.648" height="70.626"/>
					<polygon fill="#E9E9EA" points="465.224,-1113.635 150.541,-1058.303 93.544,-1043.183 -1.424,-1113.806 					"/>
				</g>
			</g>
			<g>
				<g>
					<rect x="117.624" y="-1113.83" fill="none" width="634.446" height="375.379"/>
					<polygon fill="#F7F8F9" points="117.624,-738.451 752.07,-956.96 465.39,-1113.833 					"/>
				</g>
			</g>
			<g>
				<g>
					<rect x="-1.424" y="-1113.806" fill="none" width="119.087" height="375.497"/>
					<polygon fill="#E5E6E7" points="-1.424,-1113.809 45.676,-909.675 117.663,-738.309 -1.424,-763.472 					"/>
				</g>
			</g>
			<g>
				<g>
					<rect x="-1.424" y="-763.359" fill="none" width="212.771" height="400.135"/>
					<polygon fill="#F3F4F4" points="-1.424,-763.359 211.347,-363.225 -1.424,-413.022 					"/>
				</g>
			</g>
			<g>
				<g>
					<rect x="93.66" y="-1113.806" fill="none" width="371.621" height="375.466"/>
					<polygon fill="#D1D2D4" points="465.281,-1113.809 150.541,-1058.3 93.66,-1043.25 117.677,-738.337 					"/>
				</g>
			</g>
			<g>
				<g>
					<rect x="470.639" y="-663.2" fill="none" width="434.346" height="244.617"/>
					<polygon fill="#F3F4F4" points="470.639,-418.583 904.984,-565.263 763.07,-663.197 					"/>
				</g>
			</g>
			<g>
				<g>
					<rect x="211.405" y="-663.169" fill="none" width="551.547" height="244.699"/>
					<polygon fill="#E9E9EA" points="762.952,-663.169 211.405,-540.716 470.678,-418.468 					"/>
				</g>
			</g>
			<g>
				<g>
					<rect x="598.895" y="-849.938" fill="none" width="164.173" height="192.293"/>
					<polygon fill="#F3F4F4" points="706.995,-849.938 598.895,-657.645 763.068,-663.195 					"/>
				</g>
			</g>
			<g>
				<g>
					<rect x="399.331" y="-956.93" fill="none" width="363.708" height="293.657"/>
					<polygon fill="#D1D2D4" points="763.042,-663.273 752.07,-956.927 399.333,-763.359 					"/>
				</g>
			</g>
			<g>
				<g>
					<rect x="117.881" y="-738.467" fill="none" width="481.078" height="197.543"/>
					<polygon fill="#D1D2D4" points="117.881,-738.47 211.521,-540.927 598.959,-657.705 					"/>
				</g>
			</g>
			<g>
				<g>
					<rect x="117.727" y="-1113.806" fill="none" width="481.207" height="456.023"/>
					<polygon fill="#E5E6E7" points="598.934,-657.782 465.37,-1113.809 150.541,-1058.3 117.727,-738.434 					"/>
				</g>
			</g>
			<g>
				<g>
					<rect x="-1.424" y="-763.492" fill="none" width="212.931" height="580.481"/>
					<polygon fill="#E5E6E7" points="-1.273,-763.495 -1.424,-183.011 211.507,-540.713 					"/>
				</g>
			</g>
			<g>
				<g>
					<rect x="-1.424" y="-763.463" fill="none" width="212.893" height="222.667"/>
					<polygon fill="#DCDDDF" points="211.469,-540.796 117.677,-738.291 -1.424,-763.463 					"/>
				</g>
			</g>
			<g>
				<g>
					<rect x="752.07" y="-956.938" fill="none" width="179.727" height="293.719"/>
					<polygon fill="#E9E9EA" points="752.07,-956.938 762.899,-663.215 931.797,-763.277 					"/>
				</g>
			</g>
			<g>
				<g>
					<rect x="697.523" y="-1113.83" fill="none" width="234.239" height="350.471"/>
					<polygon fill="#D8D9DB" points="931.764,-763.359 697.523,-1113.833 751.928,-956.902 					"/>
				</g>
			</g>
			<g>
				<g>
					<rect x="-1.469" y="-1113.513" fill="none" width="1866.908" height="1401.344"/>
					<g>
						<rect x="-1.469" y="-1113.513" fill="none" width="1866.908" height="1401.344"/>
						
							<linearGradient id="SVGID_3_" gradientUnits="userSpaceOnUse" x1="530.6123" y1="886.9854" x2="532.9484" y2="886.9854" gradientTransform="matrix(0 768.7806 -768.7806 0 682828.8125 -409135.9063)">
							<stop  offset="0" style="stop-color:#0C73B3"/>
							<stop  offset="0.1066" style="stop-color:#0D78AE"/>
							<stop  offset="0.3167" style="stop-color:#1187A2"/>
							<stop  offset="0.5497" style="stop-color:#18988E"/>
							<stop  offset="0.599" style="stop-color:#379D92"/>
							<stop  offset="0.6904" style="stop-color:#64A99D"/>
							<stop  offset="0.8141" style="stop-color:#9BC1B2"/>
							<stop  offset="0.9637" style="stop-color:#E5EAD3"/>
							<stop  offset="1" style="stop-color:#F9F7DD"/>
						</linearGradient>
						<rect x="-1.469" y="-1113.513" fill="url(#SVGID_3_)" width="1866.908" height="1401.344"/>
					</g>
				</g>
			</g>
			<polygon opacity="0.5" fill="none" stroke="#FFFFFF" stroke-miterlimit="10" points="1865.439,-1113.077 1159.194,-827.208 
				932.319,-1113.427 			"/>
			<polygon opacity="0.5" fill="none" stroke="#FFFFFF" stroke-miterlimit="10" points="1817.552,-409.685 1678.722,-920.044 
				1865.311,-1113.312 			"/>
			<polygon opacity="0.5" fill="none" stroke="#FFFFFF" stroke-miterlimit="10" points="1865.439,287.734 1533.449,-379.247 
				1865.31,-412.744 			"/>
			<polygon opacity="0.5" fill="none" stroke="#FFFFFF" stroke-miterlimit="10" points="197.313,287.792 1529.979,-39.149 
				1865.437,287.705 			"/>
			<polygon opacity="0.5" fill="none" stroke="#FFFFFF" stroke-miterlimit="10" points="-1.086,44.463 701.737,-116.178 
				932.032,287.703 			"/>
			<polygon opacity="0.5" fill="none" stroke="#FFFFFF" stroke-miterlimit="10" points="620.046,-1113.427 -1.469,-884.076 
				-1.086,-1113.427 			"/>
			<polygon opacity="0.5" fill="none" stroke="#FFFFFF" stroke-miterlimit="10" points="338.063,-439.566 1159.227,-827.242 
				932.357,-1113.474 			"/>
			<polygon opacity="0.5" fill="none" stroke="#FFFFFF" stroke-miterlimit="10" points="-1.086,-1113.427 129.165,-849.938 
				338.138,-439.296 -1.086,-412.958 			"/>
			<polygon opacity="0.5" fill="none" stroke="#FFFFFF" stroke-miterlimit="10" points="-1.086,-412.734 328.506,23.949 
				-1.086,287.734 			"/>
			<polygon opacity="0.5" fill="none" stroke="#FFFFFF" stroke-miterlimit="10" points="620.046,-1113.427 -1.224,-884.213 
				338.152,-439.343 			"/>
		</g>
	</g>
	<g>
		<defs>
			<rect id="SVGID_4_" width="1399.824" height="238"/>
		</defs>
		<clipPath id="SVGID_5_">
			<use xlink:href="#SVGID_4_"  overflow="visible"/>
		</clipPath>
		<g opacity="0.3" clip-path="url(#SVGID_5_)">
			<rect x="136.541" y="-62.107" fill="#DEDEDD" width="401.461" height="250.917"/>
			<path opacity="0.5" fill="#1596D4" d="M528.931,200.034l-67.22-67.221c-13.853,9.12-30.44,14.566-48.348,14.566
				c-48.432,0-87.744-39.324-87.744-87.756c0-48.443,39.313-87.744,87.744-87.744c48.443,0,87.756,39.3,87.756,87.744
				c0,17.908-5.447,34.484-14.566,48.348l67.208,67.22L528.931,200.034z M413.362,6.973c-29.037,0-52.642,23.602-52.642,52.651
				s23.605,52.654,52.642,52.654c29.061,0,52.654-23.605,52.654-52.654S442.423,6.973,413.362,6.973z"/>
			<path fill="#676767" d="M87.064-162.48h250.209v50.185h251.019L588.196,239H87.189L87.064-162.48z M538.002-62.107H136.535
				v250.917h401.468V-62.107z"/>
			<path fill="#1596D4" d="M461.603,132.623c-13.853,9.12-30.44,14.566-48.348,14.566c-48.432,0-87.741-39.321-87.741-87.756
				c0-48.441,39.309-87.741,87.741-87.741c48.443,0,87.755,39.3,87.755,87.741c0,17.911-5.435,34.483-14.566,48.351
				C486.444,107.784,475.47,123.503,461.603,132.623z M413.255,6.782c-29.025,0-52.639,23.603-52.639,52.651
				c0,29.052,23.614,52.654,52.639,52.654c29.061,0,52.654-23.602,52.654-52.654C465.909,30.384,442.315,6.782,413.255,6.782z"/>
			<path fill="#FFFFFF" d="M413.255,6.782c-29.025,0-52.639,23.603-52.639,52.651c0,29.052,23.614,52.654,52.639,52.654
				c29.061,0,52.654-23.602,52.654-52.654C465.909,30.384,442.315,6.782,413.255,6.782z"/>
			<polygon fill="#333333" points="86.962,-112.436 86.962,-162.48 337.166,-162.48 337.166,-112.295 			"/>
		</g>
	</g>
	<rect opacity="0.6" fill="#87BC40" width="1399.824" height="238"/>
</g>
</svg>
