<?xml version="1.0" encoding="utf-8"?>
<!-- Generator: Adobe Illustrator 14.0.0, SVG Export Plug-In . SVG Version: 6.00 Build 43363)  -->
<!DOCTYPE svg PUBLIC "-//W3C//DTD SVG 1.1//EN" "http://www.w3.org/Graphics/SVG/1.1/DTD/svg11.dtd">
<svg version="1.1" id="Layer_1" xmlns="http://www.w3.org/2000/svg" xmlns:xlink="http://www.w3.org/1999/xlink" x="0px" y="0px"
	 width="62.125px" height="62.125px" viewBox="-273.64 444.945 62.125 62.125"
	 enable-background="new -273.64 444.945 62.125 62.125" xml:space="preserve">
<path fill="#666666" d="M-263.084,459.649l41.131,0l0.043,32.81h-41.146L-263.084,459.649z M-226.032,463.729h-32.972v24.607h32.972
	V463.729z"/>
<rect x="-259.004" y="463.729" fill="#DDDDDD" width="32.972" height="24.607"/>
<rect x="-255.777" y="466.712" fill="#FFFFFF" width="26.273" height="18.701"/>
<g>
	<polygon fill="#0696D7" points="-229.515,476.07 -233.265,476.07 -233.265,481.695 -238.89,481.695 -238.89,485.445 
		-229.515,485.445 	"/>
	<polygon opacity="0.5" fill="#FFFFFF" points="-229.515,481.695 -233.289,481.685 -233.265,481.695 -238.89,481.695 
		-238.89,485.445 -229.515,485.445 	"/>
</g>
<path fill="none" d="M-265.14,453.57h45v45h-45V453.57z"/>
<polygon fill="#333333" points="-255.781,476.093 -252.031,476.093 -252.031,470.468 -246.406,470.468 -246.406,466.718 
	-255.781,466.718 "/>
<polygon opacity="0.5" fill="#FFFFFF" points="-255.781,470.468 -252.008,470.479 -252.031,470.468 -246.406,470.468 
	-246.406,466.718 -255.781,466.718 "/>
</svg>
