<?xml version="1.0" encoding="utf-8"?>
<!-- Generator: Adobe Illustrator 14.0.0, SVG Export Plug-In . SVG Version: 6.00 Build 43363)  -->
<!DOCTYPE svg PUBLIC "-//W3C//DTD SVG 1.1//EN" "http://www.w3.org/Graphics/SVG/1.1/DTD/svg11.dtd">
<svg version="1.1" id="Capa_1" xmlns="http://www.w3.org/2000/svg" xmlns:xlink="http://www.w3.org/1999/xlink" x="0px" y="0px"
	 width="30.021px" height="30.452px" viewBox="-285.989 432.795 30.021 30.452"
	 enable-background="new -285.989 432.795 30.021 30.452" xml:space="preserve">
<g>
	<path fill="#1858A8" d="M-257.095,442.114h-9.537c1.713,1.313,2.844,3.363,2.844,5.691c0,1.85-0.866,3.403-1.868,4.795
		c-1.708,2.38-5.782,10.194-5.782,10.194c0.155,0.003,0.304,0.022,0.462,0.022c8.288,0,15.009-6.721,15.009-15.009
		C-255.968,445.79-256.373,443.87-257.095,442.114z"/>
	<path fill="#1858A8" d="M-271.01,440.619c3.284-0.024,13.136-0.124,13.136-0.124c-2.568-4.591-7.47-7.7-13.105-7.7
		c-4.699,0-8.891,2.163-11.642,5.544l4.585,8.144C-277.417,443.156-274.515,440.644-271.01,440.619z"/>
	<path fill="#1858A8" d="M-270.981,454.995c-3.136,0-5.526-2.118-6.758-4.819c-1.239-2.717-5.918-10.379-5.918-10.379
		c-1.468,2.32-2.332,5.06-2.332,8.008c0,7.528,5.549,13.746,12.777,14.826l4.664-8.089
		C-269.31,454.822-270.122,454.995-270.981,454.995z"/>
	<circle fill="#1858A8" cx="-270.981" cy="447.807" r="4.854"/>
</g>
</svg>
