<?xml version="1.0" encoding="utf-8"?>
<!-- Generator: Adobe Illustrator 14.0.0, SVG Export Plug-In . SVG Version: 6.00 Build 43363)  -->
<!DOCTYPE svg PUBLIC "-//W3C//DTD SVG 1.1//EN" "http://www.w3.org/Graphics/SVG/1.1/DTD/svg11.dtd">
<svg version="1.1" id="Layer_1" xmlns="http://www.w3.org/2000/svg" xmlns:xlink="http://www.w3.org/1999/xlink" x="0px" y="0px"
	 width="62.125px" height="62.125px" viewBox="-273.64 444.945 62.125 62.125"
	 enable-background="new -273.64 444.945 62.125 62.125" xml:space="preserve">
<polygon fill="#666666" points="-237.212,459.334 -233.011,463.534 -261.914,492.163 -255.871,492.195 -230.105,466.43 
	-225.915,470.629 -225.915,459.334 "/>
<polygon fill="#333333" points="-245.254,469.951 -255.871,459.334 -261.604,459.396 -248.16,472.857 "/>
<polygon fill="#333333" points="-236.533,478.671 -239.439,481.577 -233.011,488.005 -237.212,492.195 -225.915,492.195 
	-225.915,480.899 -230.115,485.099 "/>
<path fill="#0696D7" d="M-239.253,481.834c-1.347,0.887-2.959,1.416-4.699,1.416c-4.706,0-8.527-3.822-8.527-8.529
	c0-4.709,3.821-8.527,8.527-8.527c4.708,0,8.528,3.818,8.528,8.527c0,1.74-0.528,3.352-1.415,4.699
	C-236.839,479.42-237.906,480.947-239.253,481.834z M-243.952,469.604c-2.82,0-5.116,2.293-5.116,5.117
	c0,2.822,2.296,5.117,5.116,5.117c2.824,0,5.117-2.295,5.117-5.117C-238.835,471.896-241.128,469.604-243.952,469.604z"/>
<path opacity="0.5" fill="#FFFFFF" d="M-248.53,472.48l6.816,6.82c1.279-0.628,2.247-1.768,2.652-3.157l-6.313-6.313
	C-246.763,470.235-247.901,471.202-248.53,472.48z"/>
<path opacity="0.5" fill="#FFFFFF" d="M-243.952,479.838c-2.82,0-5.116-2.295-5.116-5.117c0-0.808,0.204-1.562,0.538-2.24
	l-2.504-2.507c-0.912,1.357-1.445,2.99-1.445,4.747c0,4.707,3.821,8.529,8.527,8.529c1.74,0,3.353-0.529,4.699-1.416
	c0.014-0.009,0.026-0.021,0.04-0.029l-2.501-2.504C-242.392,479.634-243.145,479.838-243.952,479.838z"/>
<path opacity="0.5" fill="#FFFFFF" d="M-243.952,469.604c2.824,0,5.117,2.293,5.117,5.117c0,0.497-0.094,0.969-0.227,1.423
	l2.602,2.602c0.646-1.2,1.036-2.562,1.036-4.024c0-4.709-3.82-8.527-8.528-8.527c-1.462,0-2.838,0.37-4.041,1.019l2.618,2.618
	C-244.92,469.697-244.449,469.604-243.952,469.604z"/>
<path fill="#FFFFFF" d="M-243.951,469.603c-2.82,0-5.116,2.294-5.116,5.117s2.296,5.117,5.116,5.117
	c2.824,0,5.117-2.294,5.117-5.117S-241.127,469.603-243.951,469.603z"/>
</svg>
