<?xml version="1.0" encoding="utf-8"?>
<!-- Generator: Adobe Illustrator 14.0.0, SVG Export Plug-In . SVG Version: 6.00 Build 43363)  -->
<!DOCTYPE svg PUBLIC "-//W3C//DTD SVG 1.1//EN" "http://www.w3.org/Graphics/SVG/1.1/DTD/svg11.dtd">
<svg version="1.1" id="Layer_1" xmlns="http://www.w3.org/2000/svg" xmlns:xlink="http://www.w3.org/1999/xlink" x="0px" y="0px"
	 width="62.125px" height="62.125px" viewBox="-273.64 444.945 62.125 62.125"
	 enable-background="new -273.64 444.945 62.125 62.125" xml:space="preserve">
<path fill="#333333" d="M-232.872,482.984c-1.253,0-2.384,0.486-3.241,1.271l-11.753-6.854c0.091-0.37,0.148-0.758,0.148-1.154
	s-0.058-0.783-0.148-1.155l11.629-6.787c0.883,0.824,2.063,1.335,3.365,1.335c2.73,0,4.949-2.218,4.949-4.947
	c0-2.73-2.219-4.949-4.949-4.949s-4.948,2.218-4.948,4.949c0,0.396,0.059,0.783,0.148,1.155l-11.629,6.788
	c-0.883-0.825-2.063-1.337-3.366-1.337c-2.729,0-4.948,2.219-4.948,4.949s2.218,4.948,4.948,4.948c1.304,0,2.483-0.511,3.366-1.335
	l11.752,6.853c-0.081,0.346-0.132,0.71-0.132,1.081c0,2.656,2.152,4.809,4.809,4.809c2.657,0,4.81-2.152,4.81-4.809
	S-230.215,482.984-232.872,482.984z"/>
<path fill="#FFFFFF" d="M-252.692,472.709c-1.969,0-3.571,1.602-3.571,3.573c0,1.97,1.602,3.572,3.571,3.572
	c1.972,0,3.573-1.603,3.573-3.572C-249.119,474.311-250.72,472.709-252.692,472.709z"/>
<path fill="#0696D7" d="M-249.944,480.375c-0.783,0.517-1.719,0.823-2.731,0.823c-2.735,0-4.955-2.22-4.955-4.955
	c0-2.736,2.22-4.957,4.955-4.957c2.736,0,4.956,2.221,4.956,4.957c0,1.012-0.306,1.947-0.822,2.73
	C-248.542,478.974-249.162,479.86-249.944,480.375z M-252.676,473.27c-1.639,0-2.973,1.332-2.973,2.974
	c0,1.64,1.334,2.975,2.973,2.975c1.642,0,2.974-1.335,2.974-2.975C-249.702,474.602-251.034,473.27-252.676,473.27z"/>
<path opacity="0.5" fill="#FFFFFF" d="M-252.676,479.218c-1.639,0-2.973-1.335-2.973-2.975c0-1.642,1.334-2.974,2.973-2.974
	c0.643,0,1.051,0.16,1.598,0.473l1.813-1.109c-1.031-0.938-2.031-1.313-3.41-1.347c-2.699-0.067-4.955,2.221-4.955,4.957
	c0,2.735,2.22,4.955,4.955,4.955c1.012,0,1.948-0.307,2.731-0.823c0.283-0.186,0.444-0.299,0.663-0.523l-1.75-1.156
	C-251.517,479.041-252.035,479.218-252.676,479.218z"/>
<path fill="#DDDDDD" d="M-232.906,484.249c-1.965,0-3.565,1.599-3.565,3.566c0,1.967,1.601,3.566,3.565,3.566
	c1.969,0,3.567-1.6,3.567-3.566C-229.339,485.848-230.937,484.249-232.906,484.249z"/>
<path fill="#666666" d="M-230.163,492.006c-0.781,0.516-1.716,0.821-2.726,0.821c-2.731,0-4.947-2.217-4.947-4.948
	c0-2.732,2.216-4.948,4.947-4.948s4.949,2.216,4.949,4.948c0,1.01-0.308,1.945-0.822,2.727
	C-228.761,490.605-229.381,491.492-230.163,492.006z M-232.888,484.909c-1.636,0-2.969,1.331-2.969,2.97
	c0,1.638,1.333,2.97,2.969,2.97c1.64,0,2.969-1.332,2.969-2.97C-229.92,486.24-231.249,484.909-232.888,484.909z"/>
<path fill="#DDDDDD" d="M-232.923,461.042c-1.966,0-3.564,1.599-3.564,3.567c0,1.966,1.599,3.566,3.564,3.566
	c1.968,0,3.567-1.6,3.567-3.566C-229.355,462.64-230.955,461.042-232.923,461.042z"/>
<path fill="#666666" d="M-230.12,468.813c-0.783,0.515-1.719,0.823-2.729,0.823c-2.738,0-4.959-2.221-4.959-4.957
	c0-2.736,2.221-4.955,4.959-4.955c2.734,0,4.955,2.219,4.955,4.955c0,1.012-0.308,1.948-0.822,2.73
	C-228.717,467.41-229.338,468.299-230.12,468.813z M-232.849,461.706c-1.641,0-2.975,1.333-2.975,2.974s1.334,2.974,2.975,2.974
	c1.639,0,2.974-1.333,2.974-2.974S-231.211,461.706-232.849,461.706z"/>
</svg>
