<?xml version="1.0" encoding="utf-8"?>
<!-- Generator: Adobe Illustrator 14.0.0, SVG Export Plug-In . SVG Version: 6.00 Build 43363)  -->
<!DOCTYPE svg PUBLIC "-//W3C//DTD SVG 1.1//EN" "http://www.w3.org/Graphics/SVG/1.1/DTD/svg11.dtd">
<svg version="1.1" id="Layer_1" xmlns="http://www.w3.org/2000/svg" xmlns:xlink="http://www.w3.org/1999/xlink" x="0px" y="0px"
	 width="817.347px" height="619.387px" viewBox="0 0 817.347 619.387" enable-background="new 0 0 817.347 619.387"
	 xml:space="preserve">
<polygon fill="none" stroke="#FFFFFF" stroke-miterlimit="10" points="6.061,11.362 308.699,133.761 405.918,11.213 "/>
<polygon fill="none" stroke="#FFFFFF" stroke-miterlimit="10" points="26.582,312.527 86.073,94.012 6.116,11.262 "/>
<polygon fill="none" stroke="#FFFFFF" stroke-miterlimit="10" points="6.061,611.134 148.323,325.559 6.116,311.217 "/>
<polygon fill="none" stroke="#FFFFFF" stroke-miterlimit="10" points="720.879,611.159 149.811,471.175 6.062,611.122 "/>
<polygon fill="none" stroke="#FFFFFF" stroke-miterlimit="10" points="805.897,506.975 504.726,438.195 406.041,611.121 "/>
<polygon fill="none" stroke="#FFFFFF" stroke-miterlimit="10" points="660.566,299.733 308.685,133.746 405.902,11.192 "/>
<polygon fill="none" stroke="#FFFFFF" stroke-miterlimit="10" points="805.897,11.212 750.083,124.028 660.534,299.848 
	805.897,311.125 "/>
<polygon fill="none" stroke="#FFFFFF" stroke-miterlimit="10" points="805.897,311.221 664.662,498.192 805.897,611.134 "/>
<polygon fill="none" stroke="#FFFFFF" stroke-miterlimit="10" points="539.732,11.212 805.956,109.354 660.528,299.829 "/>
<polygon fill="none" stroke="#FFFFFF" stroke-miterlimit="10" points="494.413,573.476 149.98,471.241 148.367,325.568 "/>
<g>
	<rect x="6.061" y="11.175" fill="none" width="800" height="600"/>
	<polygon fill="none" stroke="#FFFFFF" stroke-miterlimit="10" points="228.509,407.882 477.03,486.727 406.139,611.159 	"/>
</g>
<polygon fill="none" stroke="#FFFFFF" stroke-miterlimit="10" points="467.081,192.614 333.697,418.274 148.354,325.57 "/>
<polygon fill="none" stroke="#FFFFFF" stroke-miterlimit="10" points="148.388,325.501 308.688,133.766 524.642,280.247 "/>
<polygon fill="none" stroke="#FFFFFF" stroke-miterlimit="10" points="660.351,299.716 485.994,491.009 333.636,418.215 "/>
<polygon fill="none" stroke="#FFFFFF" stroke-miterlimit="10" points="333.669,418.148 467.18,192.529 524.642,83.068 
	660.478,299.745 "/>
<g>
	<rect x="6.061" y="11.175" fill="none" width="800" height="600"/>
	<polygon fill="none" stroke="#FFFFFF" stroke-miterlimit="10" points="805.772,395.166 664.706,498.148 479.058,520.917 	"/>
	<polygon fill="none" stroke="#FFFFFF" stroke-miterlimit="10" points="479.089,520.848 660.527,299.866 805.897,395.195 	"/>
	<polygon fill="none" stroke="#FFFFFF" stroke-miterlimit="10" points="308.682,133.757 148.51,325.546 6.25,311.287 	"/>
</g>
<polygon fill="none" stroke="#FFFFFF" stroke-miterlimit="10" points="26.801,312.573 86.21,94.012 308.809,133.787 "/>
<path fill="#FFFFFF" d="M94.087,93.987c0,4.295-3.481,7.777-7.776,7.777s-7.777-3.482-7.777-7.777s3.482-7.776,7.777-7.776
	S94.087,89.692,94.087,93.987"/>
<path fill="#FFFFFF" d="M34.607,312.572c0,4.295-3.481,7.777-7.776,7.777s-7.777-3.482-7.777-7.777c0-4.294,3.482-7.776,7.777-7.776
	S34.607,308.278,34.607,312.572"/>
<path fill="#FFFFFF" d="M156.194,327.832c0,4.295-3.481,7.777-7.776,7.777s-7.777-3.482-7.777-7.777s3.482-7.775,7.777-7.775
	S156.194,323.537,156.194,327.832"/>
<path fill="#FFFFFF" d="M156.194,471.174c0,4.295-3.481,7.777-7.776,7.777s-7.777-3.482-7.777-7.777s3.482-7.775,7.777-7.775
	S156.194,466.879,156.194,471.174"/>
<path fill="#FFFFFF" d="M341.413,418.142c0,4.295-3.481,7.777-7.776,7.777s-7.777-3.482-7.777-7.777s3.482-7.775,7.777-7.775
	S341.413,413.847,341.413,418.142"/>
<path fill="#FFFFFF" d="M492.432,491.003c0,4.295-3.482,7.777-7.777,7.777s-7.776-3.482-7.776-7.777s3.481-7.775,7.776-7.775
	S492.432,486.708,492.432,491.003"/>
<path fill="#FFFFFF" d="M486.271,521.129c0,4.295-3.482,7.777-7.777,7.777s-7.776-3.482-7.776-7.777s3.481-7.775,7.776-7.775
	S486.271,516.834,486.271,521.129"/>
<path fill="#FFFFFF" d="M504.799,573.475c0,4.295-3.482,7.777-7.777,7.777s-7.776-3.482-7.776-7.777s3.481-7.775,7.776-7.775
	S504.799,569.18,504.799,573.475"/>
<path fill="#FFFFFF" d="M672.468,498.186c0,4.295-3.482,7.777-7.777,7.777s-7.776-3.482-7.776-7.777s3.481-7.775,7.776-7.775
	S672.468,493.891,672.468,498.186"/>
<path fill="#FFFFFF" d="M668.373,299.71c0,4.295-3.482,7.777-7.777,7.777s-7.776-3.482-7.776-7.777s3.481-7.775,7.776-7.775
	S668.373,295.416,668.373,299.71"/>
<path fill="#FFFFFF" d="M474.858,192.613c0,4.295-3.482,7.777-7.777,7.777s-7.776-3.482-7.776-7.777s3.481-7.775,7.776-7.775
	S474.858,188.318,474.858,192.613"/>
<path fill="#FFFFFF" d="M532.419,83.067c0,4.295-3.482,7.777-7.777,7.777s-7.776-3.482-7.776-7.777s3.481-7.775,7.776-7.775
	S532.419,78.772,532.419,83.067"/>
<path fill="#FFFFFF" d="M316.459,134.645c0,4.295-3.481,7.777-7.776,7.777c-4.295,0-7.777-3.482-7.777-7.777
	s3.482-7.775,7.777-7.775C312.978,126.87,316.459,130.35,316.459,134.645"/>
</svg>
