<?xml version="1.0" encoding="utf-8"?>
<!-- Generator: Adobe Illustrator 14.0.0, SVG Export Plug-In . SVG Version: 6.00 Build 43363)  -->
<!DOCTYPE svg PUBLIC "-//W3C//DTD SVG 1.1//EN" "http://www.w3.org/Graphics/SVG/1.1/DTD/svg11.dtd">
<svg version="1.1" id="Layer_1" xmlns="http://www.w3.org/2000/svg" xmlns:xlink="http://www.w3.org/1999/xlink" x="0px" y="0px"
	 width="62.125px" height="62.125px" viewBox="-273.64 444.945 62.125 62.125"
	 enable-background="new -273.64 444.945 62.125 62.125" xml:space="preserve">
<rect x="-273.64" y="444.945" fill="none" width="62.125" height="62.125"/>
<g>
	<path fill="#999999" d="M-256.982,485.536c-0.005-3.013,0.955-6.051,2.949-8.621c4.765-6.135,13.603-7.247,19.739-2.484
		c3.496,2.716,5.334,7.001,5.405,11.105h6.069c0.045-6.045-2.633-11.874-7.777-15.867c-8.77-6.808-21.382-5.228-28.191,3.543
		c-2.851,3.67-4.218,8.015-4.207,12.324C-261.505,485.617-256.982,485.536-256.982,485.536z"/>
	<path fill="#FFFFFF" d="M-256.982,485.536c-0.005-3.013,0.955-6.051,2.949-8.621c4.765-6.135,13.603-7.247,19.739-2.484
		c3.496,2.716,5.334,7.001,5.405,11.105H-256.982z"/>
	<polygon opacity="0.6" fill="#0696D7" points="-238.424,485.571 -247.448,485.571 -242.785,473.151 	"/>
	<path fill="#666666" d="M-256.982,485.536c-0.005-3.013,0.955-6.051,2.949-8.621c2.81-3.617,7.033-5.487,11.286-5.438v-6.035
		c-6.045-0.091-12.044,2.621-16.041,7.771c-2.851,3.67-4.218,8.015-4.207,12.324C-261.505,485.617-256.982,485.536-256.982,485.536z
		"/>
	<polygon opacity="0.6" fill="#0696D7" points="-242.785,485.571 -247.448,485.571 -242.785,473.151 	"/>
</g>
</svg>
