<?xml version="1.0" encoding="utf-8"?>
<!-- Generator: Adobe Illustrator 14.0.0, SVG Export Plug-In . SVG Version: 6.00 Build 43363)  -->
<!DOCTYPE svg PUBLIC "-//W3C//DTD SVG 1.1//EN" "http://www.w3.org/Graphics/SVG/1.1/DTD/svg11.dtd">
<svg version="1.1" id="Capa_1" xmlns="http://www.w3.org/2000/svg" xmlns:xlink="http://www.w3.org/1999/xlink" x="0px" y="0px"
	 width="32.257px" height="29.906px" viewBox="-285.988 431.879 32.257 29.906"
	 enable-background="new -285.988 431.879 32.257 29.906" xml:space="preserve">
<g>
	<path fill="#1858A8" d="M-254.214,441.929l-0.753,1.67c0,0-0.334-3.093-0.836-4.769c-0.503-1.671-1.587-2.758-1.587-2.758
		l0.5,2.258c0,0-1.753-2.14-3.433-2.916c-0.263-0.122-0.525-0.239-0.785-0.354c-2.211-1.973-5.118-3.182-8.315-3.182
		c-4.524,0-8.475,2.41-10.672,6.009c-0.109-0.068-0.736-0.467-1.041-1.228c-0.334-0.837-0.504-1.756-0.504-1.756
		c-2.089,2.007-1.589,5.35-1.589,5.35s-0.836,0.837-1.67,2.176c-0.835,1.337-1.088,3.76-1.088,3.76l1.422-1.501
		c0,0-0.334,0.666-0.584,1.921c-0.251,1.255-0.17,3.265-0.17,3.265l0.754-1.593c0,0,0,5.102,4.851,9.616
		c4.848,4.514,13.541,5.771,20.148,0.083C-252.962,452.293-254.214,441.929-254.214,441.929z M-269.423,433.521
		c2.584,0,4.95,0.903,6.814,2.406l-2.394,0.398c0,0,2.423,0.753,4.264,2.174c0.459,0.356,0.834,0.8,1.14,1.267
		c0.404,0.857,0.7,1.774,0.868,2.739l-1.17-0.913c0,0,0.416,0.501,0.5,1.84c0.085,1.336-0.337,3.762-0.337,3.762l-1.082-1.254
		c0,0,0.25,2.09-0.168,3.931c-0.419,1.836-1.338,2.586-1.338,2.586l0.164-2.171c0,0-1.253,2.763-4.764,3.845
		c-3.51,1.087-6.854-2.004-6.854-2.004c2.258,0.583,3.676-0.587,4.851-1.171c1.168-0.587,1.752-0.67,2.256-0.67
		c0.5,0,0-1.169-0.922-1.674c-0.92-0.498-2.005-0.248-4.18,0.337c-2.175,0.586-3.514-1.255-3.427-2.506
		c0.081-1.259,2.09-0.504,2.09-0.504l-0.082-2.507c0,0,3.342-2.089,3.092-2.594c-0.249-0.502-1.419-0.331-2.425-0.669
		c-1.001-0.333-1.586-1.253-1.586-1.253s-0.168-0.669,0.166-1.25c0.332-0.587,1.502-1.427,1.502-1.427s-0.751-0.082-2.005,0.335
		c-1.254,0.419-2.174,1.171-2.174,1.171s-0.246-0.077-1.27-0.16C-275.901,435.109-272.848,433.521-269.423,433.521z"/>
</g>
</svg>
