<?xml version="1.0" encoding="utf-8"?>
<!-- Generator: Adobe Illustrator 14.0.0, SVG Export Plug-In . SVG Version: 6.00 Build 43363)  -->
<!DOCTYPE svg PUBLIC "-//W3C//DTD SVG 1.1//EN" "http://www.w3.org/Graphics/SVG/1.1/DTD/svg11.dtd">
<svg version="1.1" id="Layer_1" xmlns="http://www.w3.org/2000/svg" xmlns:xlink="http://www.w3.org/1999/xlink" x="0px" y="0px"
	 width="62.125px" height="62.125px" viewBox="-273.64 444.945 62.125 62.125"
	 enable-background="new -273.64 444.945 62.125 62.125" xml:space="preserve">
<path fill="#666666" stroke="#666666" stroke-width="2" stroke-miterlimit="10" d="M-231.352,475.715
	c0,0.51-0.044,1.021-0.111,1.521l3.285,2.575c0.289,0.233,0.379,0.655,0.178,0.989l-3.106,5.383
	c-0.191,0.334-0.602,0.467-0.957,0.334l-3.873-1.565c-0.799,0.621-1.678,1.133-2.631,1.532l-0.577,4.119
	c-0.045,0.365-0.366,0.653-0.754,0.653h-6.219c-0.389,0-0.709-0.288-0.767-0.653l-0.575-4.119c-0.942-0.39-1.821-0.911-2.631-1.532
	l-3.863,1.555c-0.356,0.133-0.755,0-0.956-0.333l-3.106-5.384c-0.201-0.335-0.112-0.755,0.178-0.988l3.284-2.565
	c-0.065-0.499-0.109-0.998-0.109-1.521c0-0.51,0.044-1.021,0.109-1.521l-3.284-2.564c-0.29-0.234-0.378-0.654-0.178-0.988
	l3.106-5.383c0.201-0.334,0.6-0.467,0.956-0.334l3.863,1.555c0.799-0.61,1.676-1.132,2.631-1.532l0.575-4.119
	c0.058-0.366,0.378-0.654,0.767-0.654h6.219c0.388,0,0.709,0.288,0.766,0.654l0.575,4.119c0.943,0.39,1.822,0.911,2.632,1.532
	l3.862-1.555c0.355-0.132,0.756,0,0.957,0.334l3.106,5.383c0.201,0.334,0.111,0.754-0.178,0.988l-3.285,2.576
	C-231.396,474.693-231.352,475.205-231.352,475.715z"/>
<path fill="#333333" d="M-235.956,486.311c-2,1.316-4.395,2.102-6.984,2.102c-6.993,0-12.672-5.679-12.672-12.675
	c0-6.999,5.679-12.678,12.672-12.678c6.999,0,12.68,5.679,12.68,12.678c0,2.588-0.781,4.981-2.102,6.984
	C-232.362,482.722-233.954,484.993-235.956,486.311z M-242.984,465.07c-5.866,0-10.647,4.775-10.647,10.654
	s4.781,10.651,10.647,10.651c5.883,0,10.657-4.772,10.657-10.651S-237.101,465.07-242.984,465.07z"/>
<path fill="#DDDDDD" d="M-242.952,465.07c-5.866,0-10.647,4.775-10.647,10.654s4.781,10.651,10.647,10.651
	c5.883,0,10.657-4.772,10.657-10.651S-237.069,465.07-242.952,465.07z"/>
<path fill="#0696D7" d="M-238.807,481.964c-1.175,0.773-2.582,1.234-4.103,1.234c-4.106,0-7.441-3.335-7.441-7.443
	c0-4.11,3.335-7.445,7.441-7.445c4.11,0,7.446,3.334,7.446,7.445c0,1.52-0.459,2.926-1.234,4.102
	C-236.698,479.856-237.632,481.19-238.807,481.964z"/>
<path fill="#FFFFFF" d="M-243.008,471.288c-2.46,0-4.464,2.002-4.464,4.467c0,2.464,2.004,4.466,4.464,4.466
	c2.466,0,4.468-2.002,4.468-4.466C-238.54,473.29-240.542,471.288-243.008,471.288z"/>
</svg>
