<?xml version="1.0" encoding="utf-8"?>
<!-- Generator: Adobe Illustrator 14.0.0, SVG Export Plug-In . SVG Version: 6.00 Build 43363)  -->
<!DOCTYPE svg PUBLIC "-//W3C//DTD SVG 1.1//EN" "http://www.w3.org/Graphics/SVG/1.1/DTD/svg11.dtd">
<svg version="1.1" id="Layer_1" xmlns="http://www.w3.org/2000/svg" xmlns:xlink="http://www.w3.org/1999/xlink" x="0px" y="0px"
	 width="62.125px" height="62.125px" viewBox="-273.64 444.945 62.125 62.125"
	 enable-background="new -273.64 444.945 62.125 62.125" xml:space="preserve">
<polyline fill="none" stroke="#333333" stroke-width="2" points="-242.948,463.526 -258.746,471.592 -242.726,480.539 
	-226.597,472.032 -226.606,487.734 "/>
<g>
	<path fill="#DDDDDD" d="M-243.036,460.542c-1.737,0-3.149,1.415-3.149,3.154c0,1.738,1.412,3.152,3.149,3.152
		c1.739,0,3.153-1.414,3.153-3.152C-239.883,461.958-241.297,460.542-243.036,460.542z"/>
	<path fill="#666666" d="M-240.559,467.413c-0.691,0.454-1.519,0.727-2.411,0.727c-2.421,0-4.384-1.962-4.384-4.381
		s1.963-4.379,4.384-4.379c2.416,0,4.379,1.96,4.379,4.379c0,0.894-0.271,1.723-0.727,2.413
		C-239.318,466.172-239.867,466.958-240.559,467.413z M-242.97,461.131c-1.45,0-2.63,1.177-2.63,2.627s1.18,2.628,2.63,2.628
		c1.447,0,2.628-1.178,2.628-2.628S-241.523,461.131-242.97,461.131z"/>
</g>
<g>
	<path fill="#DDDDDD" d="M-258.849,468.352c-1.738,0-3.151,1.415-3.151,3.154c0,1.737,1.413,3.152,3.151,3.152
		c1.737,0,3.151-1.415,3.151-3.152C-255.698,469.767-257.112,468.352-258.849,468.352z"/>
	<path fill="#666666" d="M-256.372,475.224c-0.693,0.452-1.519,0.726-2.413,0.726c-2.421,0-4.383-1.962-4.383-4.381
		c0-2.418,1.962-4.379,4.383-4.379c2.417,0,4.379,1.961,4.379,4.379c0,0.895-0.271,1.722-0.727,2.413
		C-255.133,473.981-255.682,474.768-256.372,475.224z M-258.785,468.94c-1.45,0-2.629,1.178-2.629,2.628s1.179,2.628,2.629,2.628
		c1.448,0,2.628-1.178,2.628-2.628S-257.337,468.94-258.785,468.94z"/>
</g>
<g>
	<path fill="#DDDDDD" d="M-226.734,468.688c-1.737,0-3.15,1.413-3.15,3.154c0,1.737,1.413,3.15,3.15,3.15
		c1.739,0,3.152-1.413,3.152-3.15C-223.582,470.101-224.995,468.688-226.734,468.688z"/>
	<path fill="#666666" d="M-224.258,475.558c-0.691,0.454-1.519,0.726-2.412,0.726c-2.42,0-4.383-1.963-4.383-4.379
		c0-2.419,1.963-4.38,4.383-4.38c2.417,0,4.38,1.961,4.38,4.38c0,0.893-0.271,1.722-0.727,2.412
		C-223.016,474.316-223.566,475.102-224.258,475.558z M-226.67,469.275c-1.449,0-2.629,1.179-2.629,2.629s1.18,2.626,2.629,2.626
		c1.448,0,2.628-1.176,2.628-2.626S-225.221,469.275-226.67,469.275z"/>
</g>
<g>
	<path fill="#DDDDDD" d="M-226.721,485.042c-1.737,0-3.149,1.415-3.149,3.155c0,1.737,1.412,3.15,3.149,3.15
		c1.739,0,3.153-1.413,3.153-3.15C-223.568,486.457-224.982,485.042-226.721,485.042z"/>
	<path fill="#666666" d="M-224.245,491.912c-0.691,0.454-1.519,0.729-2.412,0.729c-2.419,0-4.382-1.963-4.382-4.382
		s1.963-4.379,4.382-4.379c2.417,0,4.38,1.96,4.38,4.379c0,0.896-0.271,1.722-0.727,2.413
		C-223.004,490.672-223.552,491.458-224.245,491.912z M-226.657,485.631c-1.45,0-2.629,1.178-2.629,2.628s1.179,2.629,2.629,2.629
		c1.448,0,2.629-1.179,2.629-2.629S-225.209,485.631-226.657,485.631z"/>
</g>
<path fill="#FFFFFF" d="M-242.71,477.01c-1.74,0-3.156,1.415-3.156,3.156c0,1.743,1.416,3.158,3.156,3.158
	c1.743,0,3.158-1.415,3.158-3.158C-239.552,478.425-240.967,477.01-242.71,477.01z"/>
<path fill="#0696D7" d="M-240.28,483.784c-0.693,0.456-1.521,0.729-2.415,0.729c-2.417,0-4.38-1.963-4.38-4.38
	c0-2.419,1.963-4.381,4.38-4.381c2.419,0,4.38,1.962,4.38,4.381c0,0.893-0.27,1.72-0.726,2.413
	C-239.041,482.546-239.59,483.328-240.28,483.784z M-242.695,477.505c-1.448,0-2.627,1.178-2.627,2.628s1.179,2.629,2.627,2.629
	c1.451,0,2.628-1.179,2.628-2.629S-241.244,477.505-242.695,477.505z"/>
<path opacity="0.5" fill="#FFFFFF" d="M-240.067,480.137c0-0.001,0-0.003,0-0.004c0-1.45-1.177-2.628-2.628-2.628
	c-1.435,0-2.601,1.156-2.623,2.587l2.592,1.447L-240.067,480.137z"/>
<path opacity="0.5" fill="#FFFFFF" d="M-242.695,482.762c-1.383-0.051-2.508-1.02-2.633-2.504c-0.001-0.014-1.672-0.953-1.672-0.953
	c-0.07,0.31-0.075,0.498-0.075,0.828c0,2.417,1.963,4.38,4.38,4.38c0.895,0,1.722-0.272,2.415-0.729
	c0.69-0.456,1.239-1.238,1.239-1.238c0.456-0.693,0.726-1.521,0.726-2.413c0-0.299-0.003-0.468-0.06-0.75l-1.703,0.844
	C-240.015,481.43-241.246,482.814-242.695,482.762z"/>
</svg>
