<?xml version="1.0" encoding="utf-8"?>
<!-- Generator: Adobe Illustrator 14.0.0, SVG Export Plug-In . SVG Version: 6.00 Build 43363)  -->
<!DOCTYPE svg PUBLIC "-//W3C//DTD SVG 1.1//EN" "http://www.w3.org/Graphics/SVG/1.1/DTD/svg11.dtd">
<svg version="1.1" id="Layer_1" xmlns="http://www.w3.org/2000/svg" xmlns:xlink="http://www.w3.org/1999/xlink" x="0px" y="0px"
	 width="62.125px" height="62.125px" viewBox="-273.64 444.945 62.125 62.125"
	 enable-background="new -273.64 444.945 62.125 62.125" xml:space="preserve">
<path fill="#666666" d="M-242.578,459.445c-9.134,0-16.563,7.429-16.563,16.563s7.429,16.563,16.563,16.563
	s16.563-7.429,16.563-16.563S-233.444,459.445-242.578,459.445z M-242.578,489.258c-7.305,0-13.25-5.945-13.25-13.25
	s5.945-13.25,13.25-13.25s13.25,5.945,13.25,13.25S-235.273,489.258-242.578,489.258z"/>
<path fill="#DDDDDD" d="M-242.578,489.258c-7.305,0-13.25-5.945-13.25-13.25s5.945-13.25,13.25-13.25s13.25,5.945,13.25,13.25
	S-235.273,489.258-242.578,489.258z"/>
<path fill="#333333" d="M-240.326,489.052c3.477-0.6,6.488-2.554,8.479-5.304l-10.78-7.645L-240.326,489.052z"/>
<path fill="#0696D7" d="M-239.3,481.102c-0.942,0.621-2.07,0.991-3.288,0.991c-3.294,0-5.967-2.675-5.967-5.969
	c0-3.295,2.673-5.967,5.967-5.967c3.295,0,5.969,2.672,5.969,5.967c0,1.218-0.37,2.346-0.991,3.288
	C-237.61,479.412-238.356,480.481-239.3,481.102z M-242.588,472.543c-1.974,0-3.58,1.605-3.58,3.581s1.606,3.581,3.58,3.581
	c1.977,0,3.581-1.605,3.581-3.581S-240.611,472.543-242.588,472.543z"/>
<path fill="#FFFFFF" d="M-242.588,472.543c-1.974,0-3.58,1.605-3.58,3.581s1.606,3.581,3.58,3.581c1.977,0,3.581-1.605,3.581-3.581
	S-240.611,472.543-242.588,472.543z"/>
<path opacity="0.5" fill="#FFFFFF" d="M-242.588,479.705c-1.974,0-3.58-1.605-3.58-3.581s1.606-3.581,3.58-3.581
	c1.977,0,3.581,1.605,3.581,3.581c0,0.773-0.252,1.486-0.67,2.072l1.945,1.379c0.076-0.1,0.121-0.163,0.121-0.163
	c0.621-0.942,0.991-2.07,0.991-3.288c0-3.295-2.674-5.967-5.969-5.967c-3.294,0-5.967,2.672-5.967,5.967
	c0,3.294,2.673,5.969,5.967,5.969c0.345,0,0.68-0.037,1.008-0.094l-0.418-2.354C-242.191,479.678-242.385,479.705-242.588,479.705z"
	/>
<path fill="#333333" d="M-241.998,479.646c0.955-0.159,1.78-0.692,2.321-1.449l-2.951-2.093L-241.998,479.646z"/>
</svg>
