<?xml version="1.0" encoding="utf-8"?>
<!-- Generator: Adobe Illustrator 14.0.0, SVG Export Plug-In . SVG Version: 6.00 Build 43363)  -->
<!DOCTYPE svg PUBLIC "-//W3C//DTD SVG 1.1//EN" "http://www.w3.org/Graphics/SVG/1.1/DTD/svg11.dtd">
<svg version="1.1" id="Layer_1" xmlns="http://www.w3.org/2000/svg" xmlns:xlink="http://www.w3.org/1999/xlink" x="0px" y="0px"
	 width="62.125px" height="62.125px" viewBox="-273.64 444.945 62.125 62.125"
	 enable-background="new -273.64 444.945 62.125 62.125" xml:space="preserve">
<path fill="#666666" d="M-242.637,463.037v-3.743l-6.428,5.35l6.424,5.434l0.004-3.828c5.324,0,9.638,4.314,9.638,9.641
	c0,1.629-0.409,3.156-1.116,4.504l2.345,2.346c1.248-1.992,1.985-4.328,1.985-6.85
	C-229.786,468.789-235.539,463.037-242.637,463.037z"/>
<path fill="#333333" d="M-242.637,485.529c-5.327,0-9.639-4.314-9.639-9.639c0-1.631,0.409-3.158,1.116-4.508l-2.346-2.344
	c-1.246,1.991-1.984,4.329-1.984,6.852c0,7.098,5.751,12.852,12.853,12.852v3.742l6.426-5.35l-6.412-5.451L-242.637,485.529z"/>
<path fill="#0696D7" d="M-237.309,483.922c-1.522,1.004-3.345,1.602-5.31,1.602c-5.316,0-9.635-4.318-9.635-9.637
	s4.318-9.634,9.635-9.634c5.319,0,9.635,4.315,9.635,9.634c0,1.965-0.596,3.785-1.599,5.309
	C-234.583,481.195-235.791,482.922-237.309,483.922z M-242.619,470.105c-3.187,0-5.779,2.592-5.779,5.781s2.593,5.781,5.779,5.781
	c3.191,0,5.781-2.592,5.781-5.781S-239.427,470.105-242.619,470.105z"/>
<path opacity="0.5" fill="#FFFFFF" d="M-233.602,479.137c0.095-0.264,0.182-0.527,0.254-0.799c0.029-0.113,0.052-0.229,0.078-0.342
	c0.154-0.684,0.248-1.391,0.248-2.123c0-4.986-3.784-9.085-8.638-9.587c-0.322-0.032-0.65-0.049-0.981-0.049
	c-0.006,0-0.013,0.001-0.019,0.001l-0.004,3.825l-3.657-3.094c-3.493,1.446-5.955,4.887-5.955,8.902
	c0,5.313,4.308,9.625,9.616,9.635l0.014-3.838l3.643,3.098c0.585-0.242,1.151-0.516,1.671-0.859c1.52-1,2.728-2.727,2.728-2.727
	c0.197-0.301,0.367-0.621,0.532-0.945c0.111-0.221,0.212-0.449,0.308-0.68C-233.709,479.416-233.654,479.275-233.602,479.137z
	 M-242.641,481.652c-3.187,0-5.78-2.592-5.78-5.781s2.594-5.781,5.78-5.781c3.19,0,5.78,2.592,5.78,5.781
	S-239.451,481.652-242.641,481.652z"/>
<path fill="#FFFFFF" d="M-242.619,470.105c-3.187,0-5.779,2.592-5.779,5.781s2.593,5.781,5.779,5.781
	c3.191,0,5.781-2.592,5.781-5.781S-239.427,470.105-242.619,470.105z"/>
</svg>
