<?xml version="1.0" encoding="utf-8"?>
<!-- Generator: Adobe Illustrator 14.0.0, SVG Export Plug-In . SVG Version: 6.00 Build 43363)  -->
<!DOCTYPE svg PUBLIC "-//W3C//DTD SVG 1.1//EN" "http://www.w3.org/Graphics/SVG/1.1/DTD/svg11.dtd">
<svg version="1.1" id="Layer_1" xmlns="http://www.w3.org/2000/svg" xmlns:xlink="http://www.w3.org/1999/xlink" x="0px" y="0px"
	 width="62.125px" height="62.125px" viewBox="-273.64 444.945 62.125 62.125"
	 enable-background="new -273.64 444.945 62.125 62.125" xml:space="preserve">
<path fill="#666666" d="M-229.874,472.735c-1.169-5.913-6.386-10.373-12.642-10.373c-4.967,0-9.273,2.819-11.43,6.936
	c-5.165,0.559-9.195,4.934-9.195,10.252c0,5.697,4.615,10.313,10.313,10.313h22.344c4.743,0,8.594-3.851,8.594-8.594
	C-221.89,476.731-225.423,473.052-229.874,472.735z M-230.484,486.425h-22.344c-3.798,0-6.875-3.077-6.875-6.875
	s3.077-6.875,6.875-6.875h1.22c1.126-3.961,4.761-6.875,9.092-6.875c5.226,0,9.453,4.229,9.453,9.453v0.859h2.578
	c2.846,0,5.156,2.311,5.156,5.156S-227.638,486.425-230.484,486.425z"/>
<path fill="#DDDDDD" d="M-230.551,486.426h-22.344c-3.798,0-6.875-3.077-6.875-6.875s3.077-6.875,6.875-6.875h1.22
	c1.126-3.961,4.761-6.875,9.092-6.875c5.226,0,9.453,4.229,9.453,9.453v0.859h2.578c2.846,0,5.156,2.311,5.156,5.156
	S-227.705,486.426-230.551,486.426z"/>
<rect x="-249.777" y="483.459" fill="#0696D7" width="14.397" height="6.432"/>
<rect x="-249.777" y="486.418" opacity="0.5" fill="#FFFFFF" width="14.397" height="3.473"/>
<rect x="-248.338" y="484.202" fill="#FFFFFF" width="1.439" height="1.487"/>
<rect x="-249.777" y="474.533" fill="#333333" width="14.397" height="2.976"/>
<rect x="-248.338" y="475.277" fill="#FFFFFF" width="1.439" height="1.487"/>
<rect x="-249.777" y="478.996" fill="#666666" width="14.397" height="2.975"/>
<rect x="-248.338" y="479.74" fill="#FFFFFF" width="1.439" height="1.487"/>
</svg>
