<?xml version="1.0" encoding="utf-8"?>
<!-- Generator: Adobe Illustrator 14.0.0, SVG Export Plug-In . SVG Version: 6.00 Build 43363)  -->
<!DOCTYPE svg PUBLIC "-//W3C//DTD SVG 1.1//EN" "http://www.w3.org/Graphics/SVG/1.1/DTD/svg11.dtd">
<svg version="1.1" id="Layer_1" xmlns="http://www.w3.org/2000/svg" xmlns:xlink="http://www.w3.org/1999/xlink" x="0px" y="0px"
	 width="62.125px" height="62.125px" viewBox="-273.64 444.945 62.125 62.125"
	 enable-background="new -273.64 444.945 62.125 62.125" xml:space="preserve">
<line fill="none" stroke="#0696D7" stroke-width="2" x1="-258.465" y1="491.617" x2="-227.019" y2="491.617"/>
<polygon fill="#666666" points="-258.475,483.729 -258.475,490.627 -251.577,490.627 -231.226,470.274 -238.124,463.376 "/>
<path fill="#FFFFFF" stroke="#666666" d="M-228.369,466.708c0.648-0.646,0.648-1.698,0-2.341l-3.864-3.863
	c-0.645-0.646-1.694-0.646-2.338,0l-3.029,3.028l6.206,6.206L-228.369,466.708z"/>
<polygon fill="#333333" points="-258.469,483.752 -258.461,490.617 -234.555,466.962 -238.118,463.402 "/>
<polygon fill="#0696D7" points="-251.577,490.627 -258.461,490.617 -258.469,483.752 "/>
<polygon opacity="0.5" fill="#FFFFFF" points="-255.797,487.961 -255.015,487.204 -251.593,490.611 -258.469,490.617 "/>
</svg>
