<?xml version="1.0" encoding="utf-8"?>
<!-- Generator: Adobe Illustrator 14.0.0, SVG Export Plug-In . SVG Version: 6.00 Build 43363)  -->
<!DOCTYPE svg PUBLIC "-//W3C//DTD SVG 1.1//EN" "http://www.w3.org/Graphics/SVG/1.1/DTD/svg11.dtd">
<svg version="1.1" id="Layer_1" xmlns="http://www.w3.org/2000/svg" xmlns:xlink="http://www.w3.org/1999/xlink" x="0px" y="0px"
	 width="62.125px" height="62.125px" viewBox="-273.64 444.945 62.125 62.125"
	 enable-background="new -273.64 444.945 62.125 62.125" xml:space="preserve">
<rect x="-273.64" y="444.945" fill="none" width="62.125" height="62.125"/>
<rect x="-259.253" y="467.854" fill="#DDDDDD" width="32.971" height="20.607"/>
<path opacity="0.5" fill="#0696D7" d="M-227.027,489.383l-5.521-5.521c-1.138,0.749-2.5,1.196-3.971,1.196
	c-3.978,0-7.206-3.229-7.206-7.207c0-3.979,3.229-7.206,7.206-7.206c3.979,0,7.207,3.228,7.207,7.206
	c0,1.471-0.447,2.832-1.196,3.971l5.52,5.521L-227.027,489.383z M-236.518,473.527c-2.385,0-4.323,1.938-4.323,4.324
	s1.938,4.324,4.323,4.324c2.387,0,4.324-1.938,4.324-4.324S-234.132,473.527-236.518,473.527z"/>
<path fill="#666666" d="M-263.316,459.611h20.549v4.122h20.615l-0.008,28.851h-41.146L-263.316,459.611z M-226.282,467.854h-32.971
	v20.607h32.971V467.854z"/>
<path fill="#0696D7" d="M-232.556,483.847c-1.138,0.749-2.5,1.196-3.971,1.196c-3.978,0-7.206-3.229-7.206-7.207
	c0-3.979,3.229-7.206,7.206-7.206c3.979,0,7.207,3.228,7.207,7.206c0,1.471-0.446,2.832-1.196,3.971
	C-230.516,481.807-231.418,483.098-232.556,483.847z M-236.527,473.512c-2.384,0-4.323,1.938-4.323,4.324s1.939,4.324,4.323,4.324
	c2.387,0,4.324-1.938,4.324-4.324S-234.14,473.512-236.527,473.512z"/>
<path fill="#FFFFFF" d="M-236.527,473.512c-2.384,0-4.323,1.938-4.323,4.324s1.939,4.324,4.323,4.324
	c2.387,0,4.324-1.938,4.324-4.324S-234.14,473.512-236.527,473.512z"/>
<polygon fill="#333333" points="-263.324,463.721 -263.324,459.611 -242.776,459.611 -242.776,463.732 "/>
</svg>
